<svg xmlns="http://www.w3.org/2000/svg" viewBox="133.5315120995247 33.4604214012825 533.6316779493882 533.6316779493882">
  <defs>\n    <marker id="arrowStart" markerWidth="10" markerHeight="10" refX="9" refY="3" orient="auto-start-reverse" markerUnits="strokeWidth">\n      <path d="M9,0 L9,6 L0,3 z" fill="context-stroke" />\n    </marker>\n    <marker id="arrowEnd" markerWidth="10" markerHeight="10" refX="9" refY="3" orient="auto" markerUnits="strokeWidth">\n      <path d="M0,0 L0,6 L9,3 z" fill="context-stroke" />\n    </marker>\n  </defs>\n  <g>
    <circle cx="400.34735107421875" cy="300.27626037597656" r="246.81583897469406" fill="#f2d89b" stroke="#aba48a" stroke-width="20" opacity="1" />
    <line x1="400.34735107421875" y1="53.4604214012825" x2="400.34735107421875" y2="547.0920993506707" stroke="#aba48a" stroke-width="20" opacity="1" />
    <line x1="153.5315120995247" y1="300.27626037597656" x2="647.1631900489128" y2="300.27626037597656" stroke="#aba48a" stroke-width="20" opacity="1" />
    <line x1="225.8221976309656" y1="125.75110693272342" x2="574.872504517472" y2="474.8014138192297" stroke="#aba48a" stroke-width="20" opacity="1" />
    <line x1="574.872504517472" y1="125.75110693272342" x2="225.8221976309656" y2="474.8014138192297" stroke="#aba48a" stroke-width="20" opacity="1" />
  </g>
  <g>
    <circle cx="399.34735107421875" cy="298.27626037597656" r="187.8741624293696" fill="#f2d89b" stroke="#aba48a" stroke-width="20" opacity="1" />
    <line x1="399.34735107421875" y1="110.40209794660697" x2="399.34735107421875" y2="486.1504228053461" stroke="#aba48a" stroke-width="20" opacity="1" />
    <line x1="211.47318864484916" y1="298.27626037597656" x2="587.2215135035883" y2="298.27626037597656" stroke="#aba48a" stroke-width="20" opacity="1" />
    <line x1="266.5002568106686" y1="165.42916611242643" x2="532.1944453377689" y2="431.1233546395267" stroke="#aba48a" stroke-width="20" opacity="1" />
    <line x1="532.1944453377689" y1="165.42916611242643" x2="266.5002568106686" y2="431.1233546395267" stroke="#aba48a" stroke-width="20" opacity="1" />
  </g>
  <g>\n    <polygon points="282.6583190917969,343.9809265136719 333.2987426757813,343.9809265136719 337.17279052734375,402.6221618652344 278.7842712402344,402.6221618652344" fill="#f2d89b" stroke="none" stroke-width="0" opacity="1" />\n  </g>\n  <g>\n    <polygon points="465.62151489257815,347.78460693359375 516.2619384765625,347.78460693359375 520.135986328125,406.42584228515625 461.7474670410156,406.42584228515625" fill="#f2d89b" stroke="none" stroke-width="0" opacity="1" />\n  </g>\n  <g>\n    <polygon points="364.8455383300781,168.0572052001953 436.83744506835933,168.0572052001953 502.3071594238281,350.8594055175781 299.3758239746094,350.8594055175781" fill="#f2d89b" stroke="none" stroke-width="0" opacity="1" />\n  </g>\n  <g>
    <polygon points="367.3585948944092,221.10458374023438 431.1070384979248,221.10458374023438 399.232816696167,297.43382263183594" fill="#f2d89b" stroke="#aba48a" stroke-width="20" opacity="1" transform="rotate(180 399.232816696167 259.26920318603516)" />
  </g>
  <g>\n    <polygon points="352.3714294433594,307.36151123046875 446.3714294433594,307.36151123046875 460.3714294433594,337.5447082519531 338.3714294433594,337.5447082519531" fill="#00a953" stroke="none" stroke-width="0" opacity="1" />\n  </g>\n  <g>\n    <polygon points="361.2974548339844,149.1932373046875 439.2974548339844,149.1932373046875 443.73040771484375,175.8209228515625 356.864501953125,175.8209228515625" fill="#aba48a" stroke="none" stroke-width="0" opacity="1" />\n  </g>\n  <g>
    <rect x="307.0797424316406" y="143.29446411132812" width="25.766845703125" height="284" fill="#aba48a" stroke="none" stroke-width="0" opacity="1" transform="rotate(22 319.9631652832031 285.2944641113281)" />
  </g>
  <g>
    <rect x="468.6932373046875" y="144.1533660888672" width="25.766845703125" height="282.69940185546875" fill="#aba48a" stroke="none" stroke-width="0" opacity="1" transform="rotate(158 481.57666015625 285.50306701660156)" />
  </g>
  <g>\n    <polygon points="338.4595947265625,337.1932373046875 460.4595947265625,337.1932373046875 464.4595947265625,363.8209228515625 334.4595947265625,363.8209228515625" fill="#aba48a" stroke="none" stroke-width="0" opacity="1" />\n  </g>\n  <g>
    <rect x="322.3803405761719" y="340.35581970214844" width="25.766845703125" height="77.23928833007812" fill="#aba48a" stroke="none" stroke-width="0" opacity="1" transform="rotate(22 335.2637634277344 378.9754638671875)" />
  </g>
  <g>
    <rect x="300.2383728027344" y="406.1978454589844" width="0" height="10.011932373046875" fill="#000000" stroke="none" stroke-width="0" opacity="1" />
  </g>
  <g>\n    <polygon points="262.2188415527344,397.1859436035156 321.44976806640625,397.1859436035156 332.8498229980469,420.78546142578125 250.81878662109375,420.78546142578125" fill="#aba48a" stroke="none" stroke-width="0" opacity="1" />\n  </g>\n  <g>\n    <polygon points="477.2188415527344,396.1859436035156 536.4497680664062,396.1859436035156 547.8498229980469,419.78546142578125 465.81878662109375,419.78546142578125" fill="#aba48a" stroke="none" stroke-width="0" opacity="1" />\n  </g>\n  <g>
    <rect x="450.3803405761719" y="340.35581970214844" width="25.766845703125" height="77.23928833007812" fill="#aba48a" stroke="none" stroke-width="0" opacity="1" transform="rotate(158 463.2637634277344 378.9754638671875)" />
  </g>
</svg>